# xmcd
#
# Track frame offsets:
#	150
#	17505
#	33667
#	50340
#	70517
#	89867
#	110882
#	127265
#	143662
#	160862
#
# Disc length: 2385 seconds
#
# Revision: 0
# Processed by: cddbd v1.5.2PL0 Copyright (c) Steve Scherf et al.
# Submitted via: EasyCDDAExtractor 15.3.0.1
#
DISCID=8d094f0a
DTITLE=Emmanuel - Tu Y Yo...
DYEAR=1981
DGENRE=Latin
TTITLE0=Tu Y Yo
TTITLE1=Y Ahora
TTITLE2=Ven Con El Alma Desnuda
TTITLE3=Hoy No Sabes A Mi
TTITLE4=De Pronto Amor
TTITLE5=Esto Me Duele Mas Que A Ti
TTITLE6=Si Te Acercas Hacia El Sur
TTITLE7=Sola
TTITLE8=Te Voy A Aprovechar
TTITLE9=Por Que Te Vas
EXTD=
EXTT0=
EXTT1=
EXTT2=
EXTT3=
EXTT4=
EXTT5=
EXTT6=
EXTT7=
EXTT8=
EXTT9=
PLAYORDER=
